<svg width="128" height="128" viewBox="0 0 128 128" fill="none" xmlns="http://www.w3.org/2000/svg">
  <rect width="128" height="128" rx="28" fill="#0F172A"/>
  <path d="M32 42C32 35.3726 37.3726 30 44 30H84C90.6274 30 96 35.3726 96 42V86C96 92.6274 90.6274 98 84 98H44C37.3726 98 32 92.6274 32 86V42Z" fill="#2563EB"/>
  <path d="M47 50.5C47 46.3579 50.3579 43 54.5 43H81V53H56.5V75H81V85H54.5C50.3579 85 47 81.6421 47 77.5V50.5Z" fill="white"/>
  <path d="M65 58H83V67H65V58Z" fill="#0F172A"/>
  <path d="M65 72H87V81H65V72Z" fill="#0F172A"/>
</svg>
